<svg xmlns="http://www.w3.org/2000/svg" viewBox="0 0 1920 1080" preserveAspectRatio="xMidYMid slice">
  <defs>
    <radialGradient id="goldGlow" cx="50%" cy="42%" r="52%"><stop offset="0" stop-color="#d9b45f" stop-opacity="0.28"/><stop offset="0.42" stop-color="#5d3f13" stop-opacity="0.10"/><stop offset="1" stop-color="#000" stop-opacity="0.9"/></radialGradient>
    <linearGradient id="desk" x1="0" y1="0" x2="1" y2="1"><stop offset="0" stop-color="#201408"/><stop offset="0.45" stop-color="#080604"/><stop offset="1" stop-color="#000"/></linearGradient>
    <filter id="blur"><feGaussianBlur stdDeviation="5"/></filter>
    <filter id="soft"><feGaussianBlur stdDeviation="2"/></filter>
  </defs>
  <rect width="1920" height="1080" fill="#020101"/>
  <rect width="1920" height="1080" fill="url(#goldGlow)"/>
  <g opacity="0.55" filter="url(#blur)">
    <circle cx="260" cy="160" r="40" fill="#d9b45f" opacity="0.25"/>
    <circle cx="1470" cy="285" r="16" fill="#f2d98a" opacity="0.45"/>
    <circle cx="1535" cy="280" r="11" fill="#f2d98a" opacity="0.35"/>
    <circle cx="1120" cy="210" r="100" fill="#d9b45f" opacity="0.06"/>
  </g>
  <g transform="translate(150 145) rotate(4)" opacity="0.86">
    <rect x="0" y="0" width="650" height="395" rx="14" fill="#050403" stroke="#5f4820" stroke-width="2"/>
    <rect x="24" y="24" width="600" height="330" rx="8" fill="#0a0704"/>
    <text x="50" y="62" fill="#d9b45f" font-family="Arial" font-size="18" letter-spacing="4" opacity="0.8">SPECTRUM ANALYZER</text>
    <g stroke="#7d5d25" stroke-width="1" opacity="0.35">
      <path d="M45 95H595M45 145H595M45 195H595M45 245H595M45 295H595"/>
      <path d="M100 90V315M170 90V315M240 90V315M310 90V315M380 90V315M450 90V315M520 90V315"/>
    </g>
    <path d="M55 190 C110 165 150 205 205 160 S310 135 365 185 450 240 515 150 560 175 600 165" fill="none" stroke="#e4c477" stroke-width="3" opacity="0.9"/>
    <path d="M55 255 C120 230 155 295 220 245 S335 225 390 278 475 325 535 240 570 258 600 250" fill="none" stroke="#d9b45f" stroke-width="2" opacity="0.65"/>
    <g opacity="0.72">
      <rect x="490" y="105" width="18" height="180" fill="#c99e42"/>
      <rect x="520" y="135" width="18" height="150" fill="#c99e42"/>
      <rect x="550" y="75" width="18" height="210" fill="#c99e42"/>
      <rect x="580" y="160" width="18" height="125" fill="#c99e42"/>
    </g>
  </g>
  <g opacity="0.62">
    <rect x="1265" y="190" width="170" height="260" rx="6" fill="#020202" stroke="#3e2c12"/>
    <circle cx="1350" cy="265" r="38" fill="#020202" stroke="#3e2c12"/>
    <circle cx="1350" cy="365" r="70" fill="#020202" stroke="#3e2c12"/>
    <circle cx="1350" cy="365" r="32" fill="#d9b45f" opacity="0.07"/>
  </g>
  <g transform="translate(-90 628) rotate(-8)">
    <rect x="0" y="0" width="1450" height="430" fill="url(#desk)" stroke="#503913"/>
    <g opacity="0.88">
      <script type="application/ecmascript"><![CDATA[]]></script>
      <g fill="#d9b45f">
        <circle cx="130" cy="82" r="7"/><circle cx="190" cy="98" r="6"/><circle cx="250" cy="75" r="8"/><circle cx="318" cy="106" r="6"/><circle cx="390" cy="80" r="7"/><circle cx="470" cy="105" r="6"/><circle cx="540" cy="86" r="7"/><circle cx="615" cy="113" r="6"/><circle cx="690" cy="82" r="8"/><circle cx="770" cy="110" r="6"/><circle cx="850" cy="88" r="7"/><circle cx="930" cy="112" r="6"/><circle cx="1010" cy="84" r="8"/><circle cx="1090" cy="108" r="6"/><circle cx="1170" cy="88" r="7"/>
      </g>
      <g stroke="#d9b45f" stroke-width="4" opacity="0.62">
        <path d="M105 160h70M205 175h70M305 145h70M405 168h70M505 150h70M605 185h70M705 158h70M805 175h70M905 150h70M1005 170h70M1105 155h70"/>
      </g>
    </g>
  </g>
  <g transform="translate(795 845) rotate(-8)" opacity="0.62">
    <rect width="560" height="88" fill="#040302" stroke="#4d3815"/>
    <g fill="#e7dec9">
      <rect x="10" y="8" width="21" height="72"/><rect x="39" y="8" width="21" height="72"/><rect x="68" y="8" width="21" height="72"/><rect x="97" y="8" width="21" height="72"/><rect x="126" y="8" width="21" height="72"/><rect x="155" y="8" width="21" height="72"/><rect x="184" y="8" width="21" height="72"/><rect x="213" y="8" width="21" height="72"/><rect x="242" y="8" width="21" height="72"/><rect x="271" y="8" width="21" height="72"/><rect x="300" y="8" width="21" height="72"/><rect x="329" y="8" width="21" height="72"/><rect x="358" y="8" width="21" height="72"/><rect x="387" y="8" width="21" height="72"/><rect x="416" y="8" width="21" height="72"/><rect x="445" y="8" width="21" height="72"/><rect x="474" y="8" width="21" height="72"/><rect x="503" y="8" width="21" height="72"/>
    </g>
  </g>
  <g opacity="0.95">
    <path d="M1570 220 C1680 320 1695 520 1645 700 C1605 850 1550 980 1775 1080 L1920 1080 L1920 260 C1820 165 1710 145 1570 220Z" fill="#020202"/>
    <ellipse cx="1645" cy="620" rx="245" ry="130" fill="#070605" transform="rotate(-25 1645 620)"/>
    <path d="M1480 620 C1370 640 1325 680 1230 710" stroke="#17110a" stroke-width="42" stroke-linecap="round"/>
    <path d="M1530 690 C1395 710 1330 740 1195 775" stroke="#130f09" stroke-width="36" stroke-linecap="round"/>
    <ellipse cx="1210" cy="713" rx="42" ry="16" fill="#21170c" opacity="0.75"/>
  </g>
  <rect width="1920" height="1080" fill="url(#goldGlow)" opacity="0.18"/>
  <rect width="1920" height="1080" fill="black" opacity="0.18"/>
</svg>
